<?xml version="1.0" encoding="UTF-8"?>
<svg version="1.1" viewBox="0 0 34 34" xmlns="http://www.w3.org/2000/svg">
<title>Icon/Einstellungen</title>
<g fill="none" fill-rule="evenodd" stroke="#fff" stroke-width="1.5">
<path d="m13.654 3.9861 1.0665 2.5305c0.73298-0.17456 1.4959-0.26665 2.2795-0.26665 0.87332 0 1.7211 0.11441 2.5302 0.32989l1.1787-2.4336 4.0727 2.0018-1.2441 2.5722c0.79087 0.6877 1.4813 1.4972 2.0453 2.4009l2.8242-1.0926 1.6265 4.27-2.8937 1.119c0.072621 0.51649 0.1102 1.0449 0.1102 1.5824 0 0.41858-0.022782 0.83159-0.067153 1.2378l2.8398 1.0988-1.5133 3.9729-2.7507-0.7223c-0.59482 1.0232-1.3483 1.9345-2.2251 2.6961l1.2321 2.6616-4.106 1.9295-1.1343-2.4529c-0.80768 0.21463-1.6538 0.32857-2.5253 0.32857-0.78328 0-1.546-0.092028-2.2788-0.26648l-1.1154 2.5235-4.1391-1.8571 1.1936-2.7024c-0.95777-0.79182-1.7772-1.7584-2.4148-2.8533l-2.6171 1.0125-1.6266-4.2702 2.8163-1.0899c-0.045005-0.409-0.068117-0.82495-0.068117-1.2465 0-0.58699 0.044803-1.163 0.13111-1.7246l-2.9004-1.241 1.7734-4.2102 2.742 1.1725c0.59573-0.9262 1.3256-1.7503 2.1609-2.4414l-1.1733-2.7853 4.1704-1.7839z"/>
<circle cx="17" cy="17" r="5.75"/>
</g>
</svg>
